<?xml version="1.0" encoding="UTF-8"?>
<svg width="36px" height="35px" viewBox="0 0 36 35" version="1.1" xmlns="http://www.w3.org/2000/svg" xmlns:xlink="http://www.w3.org/1999/xlink">
    <title>7083340D-526A-4406-9E62-5A8E5B1B52BB</title>
    <g id="Client-Portal-and-IB" stroke="none" stroke-width="1" fill="none" fill-rule="evenodd">
        <g id="Dashboard----new-live-acc---upload-doc" transform="translate(-454.000000, -444.000000)">
            <g id="Account-summary" transform="translate(280.000000, 357.000000)">
                <g id="Summary" transform="translate(0.000000, 59.000000)">
                    <g id="Balance" transform="translate(16.000000, 26.000000)">
                        <g id="Equity/Balance/Credit" transform="translate(158.000000, 2.000000)">
                            <g transform="translate(0.500000, 0.000000)">
                                <circle id="Oval" fill="#EBECF1" cx="17.5" cy="17.5" r="17.5"></circle>
                                <g id="Equity/balance" transform="translate(8.000000, 11.000000)" fill="#575E8A">
                                    <path d="M3.55271368e-14,2.30645161 C3.55271368e-14,1.03245161 1.04765957,-1.15463195e-14 2.34042553,-1.15463195e-14 L17.6595745,-1.15463195e-14 C18.9523404,-1.15463195e-14 20,1.03245161 20,2.30645161 L20,10.6935484 C20,11.9675484 18.9523404,13 17.6595745,13 L2.34042553,13 C1.04765957,13 3.55271368e-14,11.9675484 3.55271368e-14,10.6935484 L3.55271368e-14,2.30645161 Z M2.34042553,1.25806452 C1.75319149,1.25806452 1.27659574,1.72774194 1.27659574,2.30645161 L1.27659574,10.6935484 C1.27659574,11.2722581 1.75319149,11.7419355 2.34042553,11.7419355 L17.6595745,11.7419355 C18.2468085,11.7419355 18.7234043,11.2722581 18.7234043,10.6935484 L18.7234043,2.30645161 C18.7234043,1.72774194 18.2468085,1.25806452 17.6595745,1.25806452 L2.34042553,1.25806452 Z M10,4.61290323 C8.94297872,4.61290323 8.08510638,5.45748387 8.08510638,6.5 C8.08510638,7.54251613 8.94297872,8.38709677 10,8.38709677 C11.0570213,8.38709677 11.9148936,7.54251613 11.9148936,6.5 C11.9148936,5.45748387 11.0570213,4.61290323 10,4.61290323 L10,4.61290323 Z M6.80851064,6.5 C6.80851064,4.76303226 8.23744681,3.35483871 10,3.35483871 C11.7625532,3.35483871 13.1914894,4.76303226 13.1914894,6.5 C13.1914894,8.23696774 11.7625532,9.64516129 10,9.64516129 C8.23744681,9.64516129 6.80851064,8.23696774 6.80851064,6.5 L6.80851064,6.5 Z M4.04255319,5.03225806 C4.39489362,5.03225806 4.68085106,5.31406452 4.68085106,5.66129032 L4.68085106,7.33870968 C4.68085106,7.68593548 4.39489362,7.96774194 4.04255319,7.96774194 C3.69021277,7.96774194 3.40425532,7.68593548 3.40425532,7.33870968 L3.40425532,5.66129032 C3.40425532,5.31406452 3.69021277,5.03225806 4.04255319,5.03225806 L4.04255319,5.03225806 Z M15.9574468,5.03225806 C16.3097872,5.03225806 16.5957447,5.31406452 16.5957447,5.66129032 L16.5957447,7.33870968 C16.5957447,7.68593548 16.3097872,7.96774194 15.9574468,7.96774194 C15.6051064,7.96774194 15.3191489,7.68593548 15.3191489,7.33870968 L15.3191489,5.66129032 C15.3191489,5.31406452 15.6051064,5.03225806 15.9574468,5.03225806 L15.9574468,5.03225806 Z"></path>
                                </g>
                            </g>
                        </g>
                    </g>
                </g>
            </g>
        </g>
    </g>
</svg>