<?xml version="1.0" encoding="UTF-8"?>
<svg width="38px" height="38px" viewBox="0 0 38 38" version="1.1" xmlns="http://www.w3.org/2000/svg" xmlns:xlink="http://www.w3.org/1999/xlink">
    <!-- Generator: sketchtool 63.1 (101010) - https://sketch.com -->
    <title>5DE0DD74-E20A-4469-BCFB-C9924A97B95D</title>
    <desc>Created with sketchtool.</desc>
    <g id="CP-linked-to-AM---V2" stroke="none" stroke-width="1" fill="none" fill-rule="evenodd">
        <g id="CP---Dashboard---deposit/move-funds-hover" transform="translate(-598.000000, -438.000000)" fill="#00ADA8">
            <g id="Deposit" transform="translate(578.000000, 408.000000)">
                <g id="Group-5" transform="translate(20.000000, 30.000000)">
                    <g id="Deposit">
                        <g>
                            <circle id="Oval" fill-opacity="0.142045455" cx="19" cy="19" r="19"></circle>
                            <g id="Deposit-Icon" transform="translate(10.000000, 11.000000)">
                                <g id="Group-6" transform="translate(0.000000, 0.422073)">
                                    <path d="M8.96012437,5.7616144 C9.19411396,5.52762481 9.57344863,5.52762481 9.80743822,5.7616144 L9.80743822,5.7616144 L12.2032361,8.15741229 C12.4372257,8.39140188 12.4372257,8.77073655 12.2032361,9.00472614 C11.9692465,9.23871573 11.5899118,9.23871573 11.3559223,9.00472614 L11.3559223,9.00472614 L9.98313007,7.63113535 L9.98313007,14.1716636 C9.98313007,14.5022837 9.7148007,14.7706131 9.3841806,14.7706131 C9.05356049,14.7706131 8.78523112,14.5022837 8.78523112,14.1716636 L8.78523112,14.1716636 L8.78523112,7.63113535 L7.41164034,9.00472614 C7.17765074,9.23871573 6.79831608,9.23871573 6.56432649,9.00472614 C6.33033689,8.77073655 6.33033689,8.39140188 6.56432649,8.15741229 L6.56432649,8.15741229 Z M16.5709354,-4.4408921e-15 C17.7840077,-4.4408921e-15 18.7670834,0.983075732 18.7670834,2.19614806 L18.7670834,2.19614806 L18.7670834,10.9336229 C18.7670834,11.2642431 18.4987541,11.5325724 18.168134,11.5325724 C17.8375139,11.5325724 17.5691845,11.2642431 17.5691845,10.9336229 L17.5691845,10.9336229 L17.5691845,4.50889162 L1.197,4.508 L1.19789894,10.9336229 C1.19789894,11.231181 0.980552158,11.4782836 0.696060743,11.5247286 L0.598949471,11.5325724 C0.268329363,11.5325724 2.34479103e-13,11.2642431 2.34479103e-13,10.9336229 L2.34479103e-13,10.9336229 L2.34479103e-13,2.19614806 C2.34479103e-13,0.983075732 0.983075732,-4.4408921e-15 2.19614806,-4.4408921e-15 L2.19614806,-4.4408921e-15 Z M16.5709354,1.19789894 L2.19614806,1.19789894 C1.64511455,1.19789894 1.19789894,1.64511455 1.19789894,2.19614806 L1.19789894,2.19614806 L1.197,3.31 L17.5691845,3.31099268 L17.5691845,2.19614806 C17.5691845,1.64511455 17.1219689,1.19789894 16.5709354,1.19789894 L16.5709354,1.19789894 Z" id="Fill-6"></path>
                                </g>
                            </g>
                        </g>
                    </g>
                </g>
            </g>
        </g>
    </g>
</svg>