<?xml version="1.0" encoding="UTF-8"?>
<svg width="35px" height="35px" viewBox="0 0 35 35" version="1.1" xmlns="http://www.w3.org/2000/svg" xmlns:xlink="http://www.w3.org/1999/xlink">
    <title>18B69E8A-0318-4F00-99C1-3BEA4FD9B66A</title>
    <defs>
        <filter id="filter-1">
            <feColorMatrix in="SourceGraphic" type="matrix" values="0 0 0 0 0.878431 0 0 0 0 0.305882 0 0 0 0 0.301961 0 0 0 1.000000 0"></feColorMatrix>
        </filter>
    </defs>
    <g id="Client-Portal-and-IB" stroke="none" stroke-width="1" fill="none" fill-rule="evenodd">
        <g id="Dashboard" transform="translate(-1359.000000, -355.000000)">
            <g id="Account-summary" transform="translate(280.000000, 265.000000)">
                <g id="Summary" transform="translate(0.000000, 59.000000)">
                    <g id="Withdrawals" transform="translate(920.000000, 26.000000)">
                        <g id="Withdraw-" transform="translate(159.000000, 5.000000)">
                            <circle id="Oval" fill="#FFF5F6" cx="17.5" cy="17.5" r="17.5"></circle>
                            <g filter="url(#filter-1)" id="Withdaw-icon">
                                <g transform="translate(9.000000, 11.000000)">
                                    <path d="M8.99960003,5 C9.33077795,5 9.59956003,5.26293937 9.59956003,5.58691824 L9.59956003,5.58691824 L9.59956003,11.9960655 L10.9754683,10.6500663 C11.2098527,10.4207769 11.5898273,10.4207769 11.8242117,10.6500663 C12.0585961,10.8793557 12.0585961,11.2510706 11.8242117,11.48036 L11.8242117,11.48036 L9.42437171,13.828033 C9.18998733,14.0573223 8.81001267,14.0573223 8.57562829,13.828033 L8.57562829,13.828033 L6.17578828,11.48036 C5.94140391,11.2510706 5.94140391,10.8793557 6.17578828,10.6500663 C6.41017266,10.4207769 6.79014732,10.4207769 7.0245317,10.6500663 L7.0245317,10.6500663 L8.39964002,11.9960655 L8.39964002,5.58691824 C8.39964002,5.26293937 8.66842211,5 8.99960003,5 Z M15.893617,0 C17.0571064,0 18,0.937677446 18,2.09473028 L18,2.09473028 L18,10.4287099 C18,10.744062 17.7426383,11 17.4255319,11 C17.1084255,11 16.8510638,10.744062 16.8510638,10.4287099 L16.8510638,10.4287099 L16.8510638,4.3006717 L1.148,4.3 L1.14893617,10.4287099 C1.14893617,10.7125268 0.940473191,10.9482183 0.667610043,10.9925184 L0.574468085,11 C0.257361702,11 -1.77635684e-15,10.744062 -1.77635684e-15,10.4287099 L-1.77635684e-15,10.4287099 L-1.77635684e-15,2.09473028 C-1.77635684e-15,0.937677446 0.942893617,0 2.10638298,0 L2.10638298,0 Z M15.893617,1.14258015 L2.10638298,1.14258015 C1.57787234,1.14258015 1.14893617,1.56914341 1.14893617,2.09473028 L1.14893617,2.09473028 L1.148,3.158 L16.8510638,3.15809154 L16.8510638,2.09473028 C16.8510638,1.56914341 16.4221277,1.14258015 15.893617,1.14258015 L15.893617,1.14258015 Z" fill="#8B959E"></path>
                                </g>
                            </g>
                        </g>
                    </g>
                </g>
            </g>
        </g>
    </g>
</svg>